<svg version="1.1" id="Layer_1" xmlns="http://www.w3.org/2000/svg" xmlns:xlink="http://www.w3.org/1999/xlink" x="0px" y="0px"
	 viewBox="0 0 14 14" enable-background="new 0 0 14 14" xml:space="preserve">
<path fill="#ffffff" d="M8.0605469,7l5.6699219-5.6699219c0.2929688-0.2929688,0.2929688-0.7675781,0-1.0605469
	s-0.7675781-0.2929688-1.0605469,0L7,5.9394531L1.3300781,0.2695312c-0.2929688-0.2929688-0.7675781-0.2929688-1.0605469,0
	s-0.2929688,0.7675781,0,1.0605469L5.9394531,7l-5.6699219,5.6699219c-0.2929688,0.2929688-0.2929688,0.7675781,0,1.0605469
	c0.1464844,0.1464844,0.3383789,0.2197266,0.5302734,0.2197266s0.3837891-0.0732422,0.5302734-0.2197266L7,8.0605469
	l5.6699219,5.6699219c0.1464844,0.1464844,0.3378906,0.2197266,0.5302734,0.2197266s0.3837891-0.0732422,0.5302734-0.2197266
	c0.2929688-0.2929688,0.2929688-0.7675781,0-1.0605469L8.0605469,7z"/>
</svg>
