<svg version="1.1" id="Layer_1" xmlns="http://www.w3.org/2000/svg" xmlns:xlink="http://www.w3.org/1999/xlink" x="0px" y="0px"
	 viewBox="0 0 12 12" enable-background="new 0 0 12 12" xml:space="preserve">
<g id="Layer_8" display="none">
	<rect x="-28.279722" y="-110.359283" display="inline" fill="#483594" width="68.434555" height="985.575623"/>
</g>
<g id="Layer_6">
</g>
<g id="Status_Icons" display="none">
</g>
<g id="Grid" display="none">
	<g display="inline">
		<path fill="none" stroke="#333333" stroke-width="0.02" stroke-miterlimit="10" d="M11.925577,9.698032
			c0,0.295124-0.223268,0.534645-0.498717,0.534645H0.448246c-0.275449,0-0.498717-0.239521-0.498717-0.534645v-7.48503
			c0-0.295124,0.223268-0.534645,0.498717-0.534645h10.977759c0.275449,0,0.498716,0.239521,0.498716,0.534645v7.48503H11.925577z"
			/>
		<path fill="none" stroke="#333333" stroke-width="0.02" stroke-miterlimit="10" d="M10.214713,11.439692
			c0,0.275449-0.239521,0.498717-0.534645,0.498717h-7.48503c-0.295124,0-0.534645-0.223268-0.534645-0.498717V0.461933
			c0-0.275449,0.239521-0.498717,0.534645-0.498717h7.48503c0.295124,0,0.534645,0.223268,0.534645,0.498717V11.439692z"/>
		<path fill="none" stroke="#333333" stroke-width="0.02" stroke-miterlimit="10" d="M11.070146,10.57485
			c0,0.283149-0.230112,0.51326-0.51326,0.51326H1.31822c-0.283148,0-0.513259-0.230111-0.513259-0.51326V1.336185
			c0-0.283148,0.230111-0.513259,0.513259-0.513259h9.238666c0.283148,0,0.51326,0.230111,0.51326,0.513259V10.57485z"/>
	</g>
</g>
<g id="Layer_4" display="none">
</g>
<path fill="#333333" d="M11.34668,4.73877h-0.676025c-0.108582-0.40802-0.270386-0.791138-0.476562-1.149414l0.57251-0.567871
	c0.130859-0.129395,0.203125-0.302246,0.203125-0.487305c0.000977-0.185059-0.071289-0.358887-0.203125-0.489258l-0.755859-0.750488
	c-0.259766-0.259766-0.71875-0.259766-0.978516,0L8.47821,1.843994C8.09314,1.614441,7.675842,1.438599,7.231445,1.322083V0.65332
	c0-0.380859-0.310547-0.690918-0.691406-0.690918H5.467773c-0.381348,0-0.691406,0.310059-0.691406,0.690918v0.668762
	C4.330139,1.439087,3.911194,1.61554,3.524841,1.846436L3.021973,1.347656C2.76123,1.088379,2.304199,1.087891,2.04248,1.34668
	l-0.754883,0.75C1.156738,2.226074,1.084473,2.398926,1.083984,2.583984c0,0.185059,0.071777,0.358887,0.203125,0.489258
	l0.524048,0.52063C1.606201,3.950867,1.44519,4.332397,1.337097,4.73877H0.65332c-0.380859,0-0.690918,0.310059-0.690918,0.691406
	v1.057129c0,0.380859,0.310059,0.691406,0.690918,0.691406h0.682129c0.116516,0.440125,0.292664,0.85321,0.522034,1.234924
	L1.355957,8.911133C1.225098,9.040039,1.152832,9.213867,1.152344,9.398438c0,0.18457,0.071777,0.358398,0.203125,0.489258
	l0.755371,0.750977c0.130371,0.128906,0.304688,0.201172,0.489746,0.201172s0.359375-0.072266,0.489258-0.201172l0.520203-0.515991
	c0.36322,0.207397,0.752075,0.369934,1.166321,0.478577v0.745422c0,0.380859,0.310059,0.691406,0.691406,0.691406h1.072266
	c0.380859,0,0.691406-0.310547,0.691406-0.691406v-0.745483c0.431519-0.11322,0.836548-0.283447,1.212402-0.50354l0.51709,0.512695
	C9.09082,10.740234,9.264648,10.8125,9.451172,10.8125c0.185547,0,0.359375-0.072266,0.489258-0.201172l0.754883-0.75
	c0.130859-0.128906,0.203125-0.302734,0.203125-0.487305c0.000977-0.18457-0.071289-0.358398-0.203125-0.489258l-0.520386-0.516357
	c0.216736-0.369446,0.385315-0.766541,0.497375-1.189697h0.674377c0.380859,0,0.691406-0.310547,0.691406-0.691406V5.430176
	C12.038086,5.048828,11.727539,4.73877,11.34668,4.73877z M6.003906,8.478516c-1.404297,0-2.546875-1.128906-2.546875-2.51709
	s1.142578-2.517578,2.546875-2.517578s2.545898,1.129395,2.545898,2.517578S7.408203,8.478516,6.003906,8.478516z"/>
<g id="Layer_5">
</g>
</svg>
